<svg fill="none" width="880" height="200" viewBox="0 0 880 200" xmlns="http://www.w3.org/2000/svg"><path d="m0 0h880v200h-880z" fill="none"/><path d="m198.65 83.08c0 41.42-33.58 75-75 75s-75-33.58-75-75c0-41.4201 33.58-74.99998 75-74.99998s75 33.57988 75 74.99998z" fill="#a532ff"/><path d="m188.65 83.08c0 41.42-33.58 75-75 75s-75-33.58-75-75c0-41.4201 33.58-74.99998 75-74.99998s75 33.57988 75 74.99998z" fill="#00cce5"/><path d="m158.65 83.08c0 41.42-33.58 75-75 75s-75.00001-33.58-75.00001-75c0-41.4201 33.58001-74.99998 75.00001-74.99998s75 33.57988 75 74.99998z" fill="#fe5c53"/><path d="m168.65 83.08c0 41.42-33.58 75-75 75s-75-33.58-75-75c0-41.4201 33.58-74.99998 75-74.99998s75 33.57988 75 74.99998z" fill="#ffd264"/><path d="m178.64 83.08c0 41.42-33.58 75-75 75s-75-33.58-75-75c0-41.4201 33.58-74.99998 75-74.99998s75 33.57988 75 74.99998z" fill="#fff"/><path d="m126.64 83.08c0 12.7-10.3 23-23 23s-23-10.3-23-23 10.3-23 23-23 23 10.3 23 23z" fill="#000"/><g fill="#fff"><path d="m771.206 65.142v58.938h16.188v-26.562c0-2.66.266-5.13.798-7.41s1.406-4.256 2.622-5.928c1.292-1.748 2.964-3.116 5.016-4.104s4.56-1.482 7.524-1.482c.988 0 2.014.076 3.078.228 1.064.076 1.976.19 2.736.342v-15.048c-1.292-.38-2.47-.57-3.534-.57-2.052 0-4.028.304-5.928.912s-3.686 1.482-5.358 2.622c-1.672 1.064-3.154 2.394-4.446 3.99-1.292 1.52-2.318 3.192-3.078 5.016h-.228v-10.944z"/><path d="m829.596 104.962h-15.39c.152 3.952 1.026 7.258 2.622 9.918 1.672 2.584 3.762 4.674 6.27 6.27 2.584 1.596 5.51 2.736 8.778 3.42s6.612 1.026 10.032 1.026c3.344 0 6.612-.342 9.804-1.026 3.268-.608 6.156-1.71 8.664-3.306s4.522-3.686 6.042-6.27c1.596-2.66 2.394-5.928 2.394-9.804 0-2.736-.532-5.016-1.596-6.84-1.064-1.9-2.47-3.458-4.218-4.674-1.748-1.292-3.762-2.318-6.042-3.078-2.204-.76-4.484-1.406-6.84-1.938-2.28-.532-4.522-1.026-6.726-1.482s-4.18-.95-5.928-1.482c-1.672-.608-3.04-1.368-4.104-2.28s-1.596-2.09-1.596-3.534c0-1.216.304-2.166.912-2.85.608-.76 1.33-1.33 2.166-1.71.912-.38 1.9-.608 2.964-.684 1.064-.152 2.052-.228 2.964-.228 2.888 0 5.396.57 7.524 1.71 2.128 1.064 3.306 3.154 3.534 6.27h15.39c-.304-3.648-1.254-6.65-2.85-9.006-1.52-2.432-3.458-4.37-5.814-5.814s-5.054-2.47-8.094-3.078c-2.964-.608-6.042-.912-9.234-.912s-6.308.304-9.348.912c-3.04.532-5.776 1.52-8.208 2.964-2.432 1.368-4.408 3.268-5.928 5.7-1.444 2.432-2.166 5.548-2.166 9.348 0 2.584.532 4.788 1.596 6.612 1.064 1.748 2.47 3.23 4.218 4.446 1.748 1.14 3.724 2.09 5.928 2.85 2.28.684 4.598 1.292 6.954 1.824 5.776 1.216 10.26 2.432 13.452 3.648 3.268 1.216 4.902 3.04 4.902 5.472 0 1.444-.342 2.66-1.026 3.648-.684.912-1.558 1.672-2.622 2.28-.988.532-2.128.95-3.42 1.254-1.216.228-2.394.342-3.534.342-1.596 0-3.154-.19-4.674-.57-1.444-.38-2.736-.95-3.876-1.71-1.14-.836-2.09-1.862-2.85-3.078-.684-1.292-1.026-2.812-1.026-4.56z"/><path d="m347.206 42.684v81.396h16.188v-81.396z"/><path d="m248.206 42.684v81.396h17.898v-33.63h34.086v-13.908h-34.086v-18.81h39.33v-15.048z"/><path d="m376.206 65.142v58.938h16.188v-34.2c0-2.888.418-5.206 1.254-6.954.836-1.824 1.824-3.192 2.964-4.104 1.216-.988 2.432-1.634 3.648-1.938 1.292-.38 2.318-.57 3.078-.57 2.584 0 4.522.456 5.814 1.368 1.368.836 2.318 1.976 2.85 3.42.608 1.444.95 3.04 1.026 4.788.076 1.672.114 3.382.114 5.13v33.06h16.188v-32.832c0-1.824.114-3.61.342-5.358.304-1.824.836-3.42 1.596-4.788.836-1.444 1.938-2.584 3.306-3.42 1.444-.912 3.306-1.368 5.586-1.368s4.066.38 5.358 1.14c1.368.76 2.394 1.786 3.078 3.078s1.102 2.812 1.254 4.56.228 3.61.228 5.586v33.402h16.188v-39.444c0-3.8-.532-7.03-1.596-9.69-1.064-2.736-2.546-4.94-4.446-6.612s-4.18-2.888-6.84-3.648-5.548-1.14-8.664-1.14c-4.104 0-7.676.988-10.716 2.964-2.964 1.976-5.32 4.256-7.068 6.84-1.596-3.648-3.952-6.194-7.068-7.638-3.04-1.444-6.422-2.166-10.146-2.166-3.876 0-7.334.836-10.374 2.508-2.964 1.672-5.51 4.028-7.638 7.068h-.228v-7.98z"/><path d="m477.206 65.142v58.938h16.188v-34.2c0-2.888.418-5.206 1.254-6.954.836-1.824 1.824-3.192 2.964-4.104 1.216-.988 2.432-1.634 3.648-1.938 1.292-.38 2.318-.57 3.078-.57 2.584 0 4.522.456 5.814 1.368 1.368.836 2.318 1.976 2.85 3.42.608 1.444.95 3.04 1.026 4.788.076 1.672.114 3.382.114 5.13v33.06h16.188v-32.832c0-1.824.114-3.61.342-5.358.304-1.824.836-3.42 1.596-4.788.836-1.444 1.938-2.584 3.306-3.42 1.444-.912 3.306-1.368 5.586-1.368s4.066.38 5.358 1.14c1.368.76 2.394 1.786 3.078 3.078s1.102 2.812 1.254 4.56.228 3.61.228 5.586v33.402h16.188v-39.444c0-3.8-.532-7.03-1.596-9.69-1.064-2.736-2.546-4.94-4.446-6.612s-4.18-2.888-6.84-3.648-5.548-1.14-8.664-1.14c-4.104 0-7.676.988-10.716 2.964-2.964 1.976-5.32 4.256-7.068 6.84-1.596-3.648-3.952-6.194-7.068-7.638-3.04-1.444-6.422-2.166-10.146-2.166-3.876 0-7.334.836-10.374 2.508-2.964 1.672-5.51 4.028-7.638 7.068h-.228v-7.98z"/><path d="m578.03 83.302c.228-3.8 1.178-6.954 2.85-9.462s3.8-4.522 6.384-6.042 5.472-2.584 8.664-3.192c3.268-.684 6.536-1.026 9.804-1.026 2.964 0 5.966.228 9.006.684 3.04.38 5.814 1.178 8.322 2.394s4.56 2.926 6.156 5.13c1.596 2.128 2.394 4.978 2.394 8.55v30.666c0 2.66.152 5.206.456 7.638s.836 4.256 1.596 5.472h-16.416c-.304-.912-.57-1.824-.798-2.736-.152-.988-.266-1.976-.342-2.964-2.584 2.66-5.624 4.522-9.12 5.586s-7.068 1.596-10.716 1.596c-2.812 0-5.434-.342-7.866-1.026s-4.56-1.748-6.384-3.192-3.268-3.268-4.332-5.472c-.988-2.204-1.482-4.826-1.482-7.866 0-3.344.57-6.08 1.71-8.208 1.216-2.204 2.736-3.952 4.56-5.244 1.9-1.292 4.028-2.242 6.384-2.85 2.432-.684 4.864-1.216 7.296-1.596s4.826-.684 7.182-.912 4.446-.57 6.27-1.026 3.268-1.102 4.332-1.938c1.064-.912 1.558-2.204 1.482-3.876 0-1.748-.304-3.116-.912-4.104-.532-1.064-1.292-1.862-2.28-2.394-.912-.608-2.014-.988-3.306-1.14-1.216-.228-2.546-.342-3.99-.342-3.192 0-5.7.684-7.524 2.052s-2.888 3.648-3.192 6.84zm37.392 11.97c-.684.608-1.558 1.102-2.622 1.482-.988.304-2.09.57-3.306.798-1.14.228-2.356.418-3.648.57s-2.584.342-3.876.57c-1.216.228-2.432.532-3.648.912-1.14.38-2.166.912-3.078 1.596-.836.608-1.52 1.406-2.052 2.394s-.798 2.242-.798 3.762c0 1.444.266 2.66.798 3.648s1.254 1.786 2.166 2.394c.912.532 1.976.912 3.192 1.14s2.47.342 3.762.342c3.192 0 5.662-.532 7.41-1.596s3.04-2.318 3.876-3.762c.836-1.52 1.33-3.04 1.482-4.56.228-1.52.342-2.736.342-3.648z"/><path d="m644.206 42.684v81.396h16.188v-20.292l6.27-6.042 16.188 26.334h19.608l-24.738-37.278 22.23-21.66h-19.152l-20.406 21.204v-43.662z"/><path d="m745.728 88.318h-26.334c.076-1.14.304-2.432.684-3.876.456-1.444 1.178-2.812 2.166-4.104 1.064-1.292 2.432-2.356 4.104-3.192 1.748-.912 3.914-1.368 6.498-1.368 3.952 0 6.878 1.064 8.778 3.192 1.976 2.128 3.344 5.244 4.104 9.348zm-26.334 10.26h42.522c.304-4.56-.076-8.93-1.14-13.11s-2.812-7.904-5.244-11.172c-2.356-3.268-5.396-5.852-9.12-7.752-3.724-1.976-8.094-2.964-13.11-2.964-4.484 0-8.588.798-12.312 2.394-3.648 1.596-6.802 3.8-9.462 6.612-2.66 2.736-4.712 6.004-6.156 9.804s-2.166 7.904-2.166 12.312c0 4.56.684 8.74 2.052 12.54 1.444 3.8 3.458 7.068 6.042 9.804s5.738 4.864 9.462 6.384c3.724 1.444 7.904 2.166 12.54 2.166 6.688 0 12.388-1.52 17.1-4.56s8.208-8.094 10.488-15.162h-14.25c-.532 1.824-1.976 3.572-4.332 5.244-2.356 1.596-5.168 2.394-8.436 2.394-4.56 0-8.056-1.178-10.488-3.534s-3.762-6.156-3.99-11.4z"/><path d="m334.394 56.022v-13.338h-16.188v13.338zm-16.188 9.12v58.938h16.188v-58.938z"/><path d="m249 151v34.272h26.016v-6.336h-18.48v-8.4h16.608v-5.856h-16.608v-7.344h18.096v-6.336z"/><path d="m302.685 185.272v-24.816h-6.816v13.008c0 2.528-.416 4.352-1.248 5.472-.832 1.088-2.176 1.632-4.032 1.632-1.632 0-2.768-.496-3.408-1.488-.64-1.024-.96-2.56-.96-4.608v-14.016h-6.816v15.264c0 1.536.128 2.944.384 4.224.288 1.248.768 2.32 1.44 3.216.672.864 1.584 1.536 2.736 2.016 1.184.48 2.688.72 4.512.72 1.44 0 2.848-.32 4.224-.96s2.496-1.68 3.36-3.12h.144v3.456z"/><path d="m307.858 160.456v24.816h6.816v-11.184c0-1.12.112-2.16.336-3.12s.592-1.792 1.104-2.496c.544-.736 1.248-1.312 2.112-1.728s1.92-.624 3.168-.624c.416 0 .848.032 1.296.096.448.032.832.08 1.152.144v-6.336c-.544-.16-1.04-.24-1.488-.24-.864 0-1.696.128-2.496.384s-1.552.624-2.256 1.104c-.704.448-1.328 1.008-1.872 1.68-.544.64-.976 1.344-1.296 2.112h-.096v-4.608z"/><path d="m331.719 172.888c0-.992.096-1.968.288-2.928s.512-1.808.96-2.544c.48-.736 1.104-1.328 1.872-1.776.768-.48 1.728-.72 2.88-.72s2.112.24 2.88.72c.8.448 1.424 1.04 1.872 1.776.48.736.816 1.584 1.008 2.544s.288 1.936.288 2.928-.096 1.968-.288 2.928c-.192.928-.528 1.776-1.008 2.544-.448.736-1.072 1.328-1.872 1.776-.768.448-1.728.672-2.88.672s-2.112-.224-2.88-.672-1.392-1.04-1.872-1.776c-.448-.768-.768-1.616-.96-2.544-.192-.96-.288-1.936-.288-2.928zm-6.816 0c0 1.984.304 3.776.912 5.376s1.472 2.976 2.592 4.128c1.12 1.12 2.464 1.984 4.032 2.592s3.328.912 5.28.912 3.712-.304 5.28-.912c1.6-.608 2.96-1.472 4.08-2.592 1.12-1.152 1.984-2.528 2.592-4.128s.912-3.392.912-5.376-.304-3.776-.912-5.376c-.608-1.632-1.472-3.008-2.592-4.128-1.12-1.152-2.48-2.032-4.08-2.64-1.568-.64-3.328-.96-5.28-.96s-3.712.32-5.28.96c-1.568.608-2.912 1.488-4.032 2.64-1.12 1.12-1.984 2.496-2.592 4.128-.608 1.6-.912 3.392-.912 5.376z"/><path d="m367.542 180.808c-1.088 0-2.016-.224-2.784-.672s-1.392-1.024-1.872-1.728c-.448-.736-.784-1.584-1.008-2.544-.192-.96-.288-1.936-.288-2.928 0-1.024.096-2.016.288-2.976s.512-1.808.96-2.544c.48-.736 1.088-1.328 1.824-1.776.768-.48 1.712-.72 2.832-.72 1.088 0 2 .24 2.736.72.768.448 1.392 1.056 1.872 1.824.48.736.816 1.584 1.008 2.544.224.96.336 1.936.336 2.928s-.096 1.968-.288 2.928-.528 1.808-1.008 2.544c-.448.704-1.056 1.28-1.824 1.728-.736.448-1.664.672-2.784.672zm-12.528-20.352v33.504h6.816v-11.76h.096c.832 1.216 1.888 2.144 3.168 2.784 1.312.608 2.736.912 4.272.912 1.824 0 3.408-.352 4.752-1.056 1.376-.704 2.512-1.648 3.408-2.832.928-1.184 1.616-2.544 2.064-4.08s.672-3.136.672-4.8c0-1.76-.224-3.44-.672-5.04-.448-1.632-1.136-3.056-2.064-4.272s-2.096-2.192-3.504-2.928-3.088-1.104-5.04-1.104c-1.536 0-2.944.304-4.224.912s-2.336 1.584-3.168 2.928h-.096v-3.168z"/><path d="m401.062 170.2h-11.088c.032-.48.128-1.024.288-1.632.192-.608.496-1.184.912-1.728.448-.544 1.024-.992 1.728-1.344.736-.384 1.648-.576 2.736-.576 1.664 0 2.896.448 3.696 1.344.832.896 1.408 2.208 1.728 3.936zm-11.088 4.32h17.904c.128-1.92-.032-3.76-.48-5.52s-1.184-3.328-2.208-4.704c-.992-1.376-2.272-2.464-3.84-3.264-1.568-.832-3.408-1.248-5.52-1.248-1.888 0-3.616.336-5.184 1.008-1.536.672-2.864 1.6-3.984 2.784-1.12 1.152-1.984 2.528-2.592 4.128s-.912 3.328-.912 5.184c0 1.92.288 3.68.864 5.28.608 1.6 1.456 2.976 2.544 4.128s2.416 2.048 3.984 2.688c1.568.608 3.328.912 5.28.912 2.816 0 5.216-.64 7.2-1.92s3.456-3.408 4.416-6.384h-6c-.224.768-.832 1.504-1.824 2.208-.992.672-2.176 1.008-3.552 1.008-1.92 0-3.392-.496-4.416-1.488s-1.584-2.592-1.68-4.8z"/></g></svg>
